<svg xmlns="http://www.w3.org/2000/svg" viewBox="0 0 400 400">
  <!-- KSU Logo Recreation -->
  <defs>
    <style>
      .yellow { fill: #F5B800; }
      .black { fill: #2C2C2C; }
      .gray { fill: #C0C0C0; }
    </style>
  </defs>
  
  <!-- Background circle -->
  <circle cx="200" cy="200" r="190" class="gray"/>
  
  <!-- Main K shape -->
  <g class="black">
    <!-- Vertical bar of K -->
    <rect x="80" y="80" width="40" height="240"/>
    
    <!-- Upper diagonal of K -->
    <polygon points="120,80 200,80 200,120 160,160 120,160"/>
    
    <!-- Lower diagonal of K -->
    <polygon points="120,240 160,240 200,280 200,320 120,320"/>
    
    <!-- Middle connection -->
    <rect x="120" y="180" width="80" height="40"/>
  </g>
  
  <!-- Yellow overlay for K -->
  <g class="yellow">
    <!-- Vertical bar highlight -->
    <rect x="90" y="90" width="20" height="220"/>
    
    <!-- Upper diagonal highlight -->
    <polygon points="130,90 190,90 190,110 150,150 130,150"/>
    
    <!-- Lower diagonal highlight -->
    <polygon points="130,250 150,250 190,290 190,310 130,310"/>
    
    <!-- Middle connection highlight -->
    <rect x="130" y="190" width="60" height="20"/>
  </g>
  
  <!-- S shape -->
  <g class="black">
    <!-- Top curve of S -->
    <path d="M 220 120 Q 280 80 320 120 Q 320 160 280 160 L 240 160 Q 220 160 220 180 Q 220 200 240 200 L 280 200 Q 320 200 320 240 Q 280 280 220 240 Q 220 220 240 220 L 260 220 Q 280 220 280 200" stroke-width="20" fill="none" stroke="#2C2C2C"/>
  </g>
  
  <!-- Yellow S overlay -->
  <g class="yellow">
    <path d="M 230 130 Q 270 100 300 130 Q 300 150 270 150 L 250 150 Q 230 150 230 170 Q 230 190 250 190 L 270 190 Q 300 190 300 230 Q 270 260 230 230 Q 230 210 250 210 L 270 210 Q 280 210 280 200" stroke-width="10" fill="none" stroke="#F5B800"/>
  </g>
  
  <!-- U shape -->
  <g class="black">
    <rect x="80" y="280" width="40" height="80"/>
    <rect x="280" y="280" width="40" height="80"/>
    <path d="M 80 360 Q 200 400 320 360" stroke-width="40" fill="none" stroke="#2C2C2C"/>
  </g>
  
  <!-- Yellow U overlay -->
  <g class="yellow">
    <rect x="90" y="290" width="20" height="70"/>
    <rect x="290" y="290" width="20" height="70"/>
    <path d="M 90 350 Q 200 380 310 350" stroke-width="20" fill="none" stroke="#F5B800"/>
  </g>
</svg>